<!DOCTYPE svg PUBLIC "-//W3C//DTD SVG 20010904//EN" "http://www.w3.org/TR/2001/REC-SVG-20010904/DTD/svg10.dtd">
<svg version="1.0" xmlns="http://www.w3.org/2000/svg" width="200px" height="200px" viewBox="0 0 2000 2000" preserveAspectRatio="xMidYMid meet">
<g id="layer101" fill="#0e1e40" stroke="none">
 <path d="M145 1715 c-22 -8 -41 -15 -42 -15 -7 0 -2 -32 8 -54 l11 -24 42 19 c47 21 79 24 107 9 36 -20 21 -38 -48 -59 -87 -26 -111 -43 -119 -85 -13 -74 46 -126 144 -126 29 0 68 6 87 14 33 14 33 15 22 46 -11 29 -15 31 -42 24 -56 -14 -107 -10 -118 8 -15 23 -9 27 70 49 79 22 113 53 113 102 0 88 -118 134 -235 92z"/>
 <path d="M445 1715 c-22 -8 -41 -15 -42 -15 -7 0 -2 -32 8 -54 11 -23 14 -24 38 -11 64 33 141 30 141 -5 0 -15 -15 -24 -67 -39 -38 -11 -78 -27 -90 -36 -51 -36 -32 -134 31 -160 45 -19 127 -19 171 -1 33 14 34 16 23 46 -9 28 -14 31 -37 25 -63 -16 -107 -17 -120 -1 -20 24 1 43 66 57 76 17 113 49 113 98 0 20 -7 47 -16 60 -35 49 -137 65 -219 36z"/>
 <path d="M1260 1712 c-18 -11 -36 -24 -37 -29 -6 -17 45 -70 54 -57 8 11 46 34 57 34 2 0 12 -7 20 -16 12 -12 16 -37 16 -105 l0 -89 -60 0 -60 0 0 -35 0 -35 105 0 105 0 0 118 c0 64 -5 134 -11 155 -19 70 -113 99 -189 59z"/>
 <path d="M751 1561 c-28 -87 -51 -164 -51 -171 0 -7 15 -10 42 -8 l42 3 35 108 36 108 36 -108 36 -108 39 -3 40 -3 34 106 c19 58 36 105 39 105 4 0 21 -48 39 -105 l33 -105 39 0 c23 0 40 5 40 11 0 6 -23 83 -51 170 l-52 159 -47 0 -48 0 -33 -102 -32 -103 -34 103 -35 102 -48 0 -47 0 -52 -159z"/>
 <path d="M1520 1550 l0 -170 38 0 c36 0 38 2 96 101 l59 101 24 -38 c13 -22 40 -67 60 -101 34 -57 40 -63 70 -63 l33 0 0 118 c0 64 3 141 6 170 l7 52 -46 0 -46 0 -3 -82 -3 -83 -40 68 c-53 91 -70 91 -127 -5 l-43 -73 -3 88 -3 87 -39 0 -40 0 0 -170z"/>
 <path d="M764 1265 c-3 -8 -7 -29 -8 -47 -1 -27 3 -33 19 -34 11 -1 24 -2 28 -3 5 0 -10 -22 -32 -47 -61 -69 -95 -195 -75 -272 4 -14 13 -22 22 -20 12 2 16 19 18 73 1 39 6 80 11 93 9 23 10 22 38 -23 32 -49 102 -101 152 -111 20 -4 30 -11 27 -19 -4 -11 -11 -10 -32 1 -40 21 -108 17 -153 -8 -75 -42 -102 -159 -52 -226 38 -51 70 -67 133 -67 63 0 95 16 133 67 24 32 34 117 18 147 -11 20 -11 21 8 9 18 -11 24 -9 52 17 17 17 35 40 40 53 5 12 16 22 24 22 31 0 114 50 148 90 l34 41 7 -32 c8 -39 8 -83 0 -103 -4 -11 -11 -13 -31 -5 -98 37 -208 -29 -220 -133 -7 -57 17 -109 65 -146 46 -35 135 -38 179 -6 66 49 91 130 61 201 -6 15 -12 73 -12 128 -1 115 -18 164 -81 234 -21 22 -32 41 -26 41 6 0 11 8 11 17 0 15 1 15 13 -2 21 -27 40 -10 31 28 -9 45 -20 55 -56 53 -25 -1 -34 -7 -39 -26 l-6 -25 -4 25 c-6 36 -39 40 -39 5 0 -22 -3 -26 -17 -20 -60 23 -188 23 -247 -1 -15 -6 -17 -4 -11 15 4 15 1 23 -11 28 -10 4 -19 2 -21 -4 -2 -5 -14 -8 -27 -6 -17 4 -25 0 -29 -14 -4 -15 -5 -14 -6 5 -1 25 -28 30 -37 7z m367 -70 c54 -20 103 -56 139 -107 27 -37 28 -40 12 -61 -46 -60 -95 -97 -144 -112 -53 -15 -53 -15 -71 10 -23 32 -43 32 -59 1 l-13 -25 -55 19 c-64 21 -134 90 -146 142 -6 30 -2 36 40 74 25 23 65 49 89 57 55 20 154 21 208 2z m-81 -326 c15 -26 -5 -56 -26 -38 -10 8 -10 16 -2 35 14 29 14 29 28 3z m-108 -78 c46 -52 49 -102 8 -154 -64 -81 -194 -40 -204 64 -2 19 -1 24 1 11 5 -28 36 -26 41 3 6 28 32 55 54 55 26 0 58 -36 57 -62 l-2 -23 -4 23 c-6 28 -23 28 -47 0 -14 -16 -16 -25 -8 -39 9 -14 8 -16 -9 -12 -11 3 -22 9 -25 14 -10 16 -34 9 -34 -10 0 -58 117 -62 154 -6 61 93 -52 200 -140 133 l-29 -22 20 23 c28 32 53 41 100 36 29 -3 48 -12 67 -34z m370 1 c63 -62 38 -161 -47 -191 -35 -12 -45 -11 -77 2 -41 17 -66 49 -72 93 -2 16 -1 21 1 11 6 -26 36 -17 43 13 3 14 18 31 32 39 23 13 29 13 52 -2 18 -12 26 -26 25 -45 -1 -17 -3 -20 -6 -9 -2 9 -9 17 -15 17 -16 0 -48 -31 -48 -46 0 -10 -9 -12 -30 -7 -45 8 -40 -24 6 -43 101 -42 183 79 105 157 -37 36 -86 39 -127 7 -15 -13 -24 -17 -20 -10 5 8 22 22 40 33 43 28 100 20 138 -19z"/>
 <path d="M697 578 c-8 -13 -18 -47 -22 -76 l-7 -54 28 4 c33 3 54 -25 54 -71 0 -27 5 -29 134 -70 l135 -42 133 43 c149 48 163 63 83 87 -27 8 -51 16 -53 17 -2 1 0 13 4 28 5 22 12 26 41 26 19 0 54 -5 79 -11 59 -15 67 -6 57 57 -7 39 -12 49 -28 49 -16 0 -19 -6 -17 -30 l3 -30 -108 3 c-81 3 -120 9 -156 24 l-48 21 -37 -21 c-30 -16 -59 -21 -145 -24 l-108 -3 6 25 c16 65 0 93 -28 48z m421 -108 c26 0 29 -3 25 -24 -3 -14 -12 -27 -21 -31 -36 -14 -131 -17 -185 -5 -50 10 -57 14 -57 36 0 20 5 24 33 24 17 0 48 8 67 18 34 18 36 18 72 0 21 -10 50 -18 66 -18z m-290 -61 c-25 -16 -44 -10 -20 7 12 8 23 25 23 37 2 16 3 14 6 -7 3 -17 -1 -32 -9 -37z m147 -45 c39 -4 97 -1 129 5 91 17 87 -2 -6 -30 l-83 -25 -83 26 c-45 15 -79 30 -75 34 4 4 17 4 28 1 11 -3 52 -8 90 -11z"/>
 </g>
<g id="layer102" fill="#3a6f91" stroke="none">
 <path d="M145 1715 c-22 -8 -41 -15 -42 -15 -7 0 -2 -32 8 -54 l11 -24 42 19 c47 21 79 24 107 9 36 -20 21 -38 -48 -59 -87 -26 -111 -43 -119 -85 -13 -74 46 -126 144 -126 29 0 68 6 87 14 33 14 33 15 22 46 -11 29 -15 31 -42 24 -56 -14 -107 -10 -118 8 -15 23 -9 27 70 49 79 22 113 53 113 102 0 88 -118 134 -235 92z"/>
 <path d="M445 1715 c-22 -8 -41 -15 -42 -15 -7 0 -2 -32 8 -54 11 -23 14 -24 38 -11 64 33 141 30 141 -5 0 -15 -15 -24 -67 -39 -38 -11 -78 -27 -90 -36 -51 -36 -32 -134 31 -160 45 -19 127 -19 171 -1 33 14 34 16 23 46 -9 28 -14 31 -37 25 -63 -16 -107 -17 -120 -1 -20 24 1 43 66 57 76 17 113 49 113 98 0 20 -7 47 -16 60 -35 49 -137 65 -219 36z"/>
 <path d="M1260 1712 c-18 -11 -36 -24 -37 -29 -6 -17 45 -70 54 -57 8 11 46 34 57 34 2 0 12 -7 20 -16 12 -12 16 -37 16 -105 l0 -89 -60 0 -60 0 0 -35 0 -35 105 0 105 0 0 118 c0 64 -5 134 -11 155 -19 70 -113 99 -189 59z"/>
 <path d="M751 1561 c-28 -87 -51 -164 -51 -171 0 -7 15 -10 42 -8 l42 3 35 108 36 108 36 -108 36 -108 39 -3 40 -3 34 106 c19 58 36 105 39 105 4 0 21 -48 39 -105 l33 -105 39 0 c23 0 40 5 40 11 0 6 -23 83 -51 170 l-52 159 -47 0 -48 0 -33 -102 -32 -103 -34 103 -35 102 -48 0 -47 0 -52 -159z"/>
 <path d="M1520 1550 l0 -170 38 0 c36 0 38 2 96 101 l59 101 24 -38 c13 -22 40 -67 60 -101 34 -57 40 -63 70 -63 l33 0 0 118 c0 64 3 141 6 170 l7 52 -46 0 -46 0 -3 -82 -3 -83 -40 68 c-53 91 -70 91 -127 -5 l-43 -73 -3 88 -3 87 -39 0 -40 0 0 -170z"/>
 <path d="M764 1265 c-3 -8 -7 -29 -8 -47 l-1 -33 59 0 59 1 14 38 c7 21 10 42 7 47 -7 12 -34 12 -34 0 0 -4 -11 -6 -24 -4 -17 4 -25 0 -29 -14 -4 -15 -5 -14 -6 5 -1 25 -28 30 -37 7z"/>
 <path d="M1170 1255 c0 -34 17 -65 35 -65 8 0 15 8 16 18 0 13 2 12 9 -5 11 -27 40 -31 40 -6 0 15 1 15 13 -2 21 -27 40 -10 31 28 -9 45 -20 55 -56 53 -25 -1 -34 -7 -39 -26 l-6 -25 -4 25 c-6 35 -39 40 -39 5z"/>
 <path d="M1000 913 c-11 -21 -26 -46 -32 -55 -11 -15 -7 -23 22 -53 19 -19 39 -35 45 -35 6 0 26 16 45 35 l34 35 -24 42 c-45 82 -59 87 -90 31z m50 -44 c15 -26 -5 -56 -26 -38 -10 8 -10 16 -2 35 14 29 14 29 28 3z"/>
 <path d="M781 784 c-24 -20 -31 -34 -31 -61 0 -27 4 -34 17 -31 10 2 19 12 21 23 6 28 32 55 54 55 26 0 58 -36 57 -62 l-2 -23 -4 23 c-6 28 -23 28 -47 0 -14 -16 -16 -25 -8 -39 9 -14 8 -16 -9 -12 -11 3 -22 9 -25 14 -10 16 -34 9 -34 -10 0 -36 58 -58 108 -40 66 23 84 109 33 160 -39 38 -87 39 -130 3z"/>
 <path d="M1151 784 c-24 -20 -31 -34 -31 -61 0 -27 4 -34 17 -31 9 2 20 14 23 28 3 14 18 31 32 39 23 13 29 13 52 -2 18 -12 26 -26 25 -45 -1 -17 -3 -20 -6 -9 -2 9 -10 17 -17 17 -15 0 -46 -32 -46 -48 0 -7 -11 -9 -30 -5 -45 8 -40 -24 6 -43 101 -42 183 79 105 157 -39 38 -87 39 -130 3z"/>
 <path d="M790 466 c0 -9 -4 -16 -10 -16 -5 0 -10 5 -10 10 0 6 -9 10 -20 10 -21 0 -29 -33 -10 -45 6 -3 10 -21 10 -39 l0 -33 134 -42 135 -42 133 43 c151 49 165 64 80 88 -50 14 -52 16 -46 43 5 26 4 28 -18 25 -15 -2 -24 -11 -26 -25 -2 -12 -10 -24 -19 -27 -37 -15 -132 -18 -186 -6 -50 10 -57 14 -57 36 0 17 -5 24 -20 24 -15 0 -20 -7 -20 -29 0 -17 -6 -31 -16 -35 -30 -11 -38 -6 -16 10 15 10 22 24 20 37 -4 25 -38 37 -38 13z m185 -102 c39 -4 97 -1 129 5 91 17 87 -2 -6 -30 l-83 -25 -83 26 c-45 15 -79 30 -75 34 4 4 17 4 28 1 11 -3 52 -8 90 -11z"/>
 </g>
<g id="layer103" fill="#4a8caf" stroke="none">
 <path d="M145 1715 c-22 -8 -41 -15 -42 -15 -7 0 -2 -32 8 -54 l11 -24 42 19 c47 21 79 24 107 9 36 -20 21 -38 -48 -59 -87 -26 -111 -43 -119 -85 -13 -74 46 -126 144 -126 29 0 68 6 87 14 33 14 33 15 22 46 -11 29 -15 31 -42 24 -56 -14 -107 -10 -118 8 -15 23 -9 27 70 49 79 22 113 53 113 102 0 88 -118 134 -235 92z"/>
 <path d="M445 1715 c-22 -8 -41 -15 -42 -15 -7 0 -2 -32 8 -54 11 -23 14 -24 38 -11 64 33 141 30 141 -5 0 -15 -15 -24 -67 -39 -38 -11 -78 -27 -90 -36 -51 -36 -32 -134 31 -160 45 -19 127 -19 171 -1 33 14 34 16 23 46 -9 28 -14 31 -37 25 -63 -16 -107 -17 -120 -1 -20 24 1 43 66 57 76 17 113 49 113 98 0 20 -7 47 -16 60 -35 49 -137 65 -219 36z"/>
 <path d="M1260 1712 c-18 -11 -36 -24 -37 -29 -6 -17 45 -70 54 -57 8 11 46 34 57 34 2 0 12 -7 20 -16 12 -12 16 -37 16 -105 l0 -89 -60 0 -60 0 0 -35 0 -35 105 0 105 0 0 118 c0 64 -5 134 -11 155 -19 70 -113 99 -189 59z"/>
 <path d="M751 1561 c-28 -87 -51 -164 -51 -171 0 -7 15 -10 42 -8 l42 3 35 108 36 108 36 -108 36 -108 39 -3 40 -3 34 106 c19 58 36 105 39 105 4 0 21 -48 39 -105 l33 -105 39 0 c23 0 40 5 40 11 0 6 -23 83 -51 170 l-52 159 -47 0 -48 0 -33 -102 -32 -103 -34 103 -35 102 -48 0 -47 0 -52 -159z"/>
 <path d="M1520 1550 l0 -170 38 0 c36 0 38 2 96 101 l59 101 24 -38 c13 -22 40 -67 60 -101 34 -57 40 -63 70 -63 l33 0 0 118 c0 64 3 141 6 170 l7 52 -46 0 -46 0 -3 -82 -3 -83 -40 68 c-53 91 -70 91 -127 -5 l-43 -73 -3 88 -3 87 -39 0 -40 0 0 -170z"/>
 <path d="M764 1265 c-3 -8 -7 -29 -8 -47 -1 -30 1 -32 36 -34 21 -2 40 1 43 6 3 5 12 7 20 3 17 -6 50 60 40 77 -8 12 -35 13 -35 1 0 -4 -11 -6 -24 -4 -17 4 -25 0 -29 -14 -4 -15 -5 -14 -6 5 -1 25 -28 30 -37 7z"/>
 <path d="M1170 1255 c0 -34 17 -65 35 -65 8 0 15 8 16 18 0 13 2 12 9 -5 11 -27 40 -31 40 -6 0 15 1 15 13 -2 21 -27 40 -10 31 28 -9 45 -20 55 -56 53 -25 -1 -34 -7 -39 -26 l-6 -25 -4 25 c-6 35 -39 40 -39 5z"/>
 <path d="M1005 917 c-7 -18 -21 -39 -29 -47 -9 -7 -16 -18 -16 -24 0 -14 62 -76 76 -76 18 0 77 68 70 82 -51 103 -78 120 -101 65z m45 -48 c15 -26 -5 -56 -26 -38 -10 8 -10 16 -2 35 14 29 14 29 28 3z"/>
 <path d="M781 784 c-24 -20 -31 -34 -31 -61 0 -27 4 -34 17 -31 10 2 19 12 21 23 6 28 32 55 54 55 26 0 58 -36 57 -62 l-2 -23 -4 23 c-6 28 -23 28 -47 0 -14 -16 -16 -25 -8 -39 9 -14 8 -16 -9 -12 -11 3 -22 9 -25 14 -10 16 -34 9 -34 -10 0 -36 58 -58 108 -40 66 23 84 109 33 160 -39 38 -87 39 -130 3z"/>
 <path d="M1151 784 c-24 -20 -31 -34 -31 -61 0 -27 4 -34 17 -31 9 2 20 14 23 28 3 14 18 31 32 39 23 13 29 13 52 -2 18 -12 26 -26 25 -45 -1 -17 -3 -20 -6 -9 -2 9 -10 17 -17 17 -15 0 -46 -32 -46 -48 0 -7 -11 -9 -30 -5 -45 8 -40 -24 6 -43 101 -42 183 79 105 157 -39 38 -87 39 -130 3z"/>
 <path d="M733 454 c-3 -8 -1 -20 6 -27 6 -6 11 -25 11 -42 l0 -32 134 -42 135 -42 133 43 c151 49 165 64 80 88 -50 14 -52 16 -46 43 5 26 4 28 -18 25 -15 -2 -24 -11 -26 -25 -2 -12 -10 -24 -19 -27 -37 -15 -132 -18 -186 -6 -50 10 -57 14 -57 36 0 17 -5 24 -20 24 -15 0 -20 -7 -20 -29 0 -17 -6 -31 -16 -35 -29 -11 -39 -6 -16 10 28 19 30 54 3 54 -11 0 -22 -6 -25 -12 -5 -10 -7 -10 -12 0 -8 17 -33 15 -41 -4z m242 -90 c39 -4 97 -1 129 5 91 17 87 -2 -6 -30 l-83 -25 -83 26 c-45 15 -79 30 -75 34 4 4 17 4 28 1 11 -3 52 -8 90 -11z"/>
 </g>
<g id="layer104" fill="#67c1e7" stroke="none">
 <path d="M145 1715 c-22 -8 -41 -15 -42 -15 -9 0 -1 -39 10 -54 13 -17 15 -17 65 0 56 20 104 12 110 -18 2 -13 -13 -22 -65 -37 -86 -26 -111 -43 -118 -85 -9 -46 17 -94 60 -112 44 -18 126 -18 170 0 33 14 33 15 22 46 -11 29 -15 31 -42 24 -56 -14 -107 -10 -118 8 -15 23 -9 27 70 49 79 22 113 53 113 102 0 88 -118 134 -235 92z"/>
 <path d="M445 1715 c-22 -8 -41 -15 -42 -15 -7 0 -2 -32 8 -54 11 -23 14 -24 38 -11 64 33 141 30 141 -5 0 -15 -15 -24 -67 -39 -38 -11 -78 -27 -90 -36 -51 -36 -32 -134 31 -160 45 -19 127 -19 171 -1 33 14 34 16 23 46 -9 26 -14 30 -32 25 -54 -17 -112 -17 -125 -1 -20 24 1 43 66 57 76 17 113 49 113 98 0 20 -7 47 -16 60 -35 49 -137 65 -219 36z"/>
 <path d="M1260 1712 c-44 -24 -46 -34 -17 -68 l24 -28 23 22 c28 26 43 27 64 6 12 -12 16 -37 16 -105 l0 -89 -60 0 -60 0 0 -35 0 -35 105 0 105 0 0 118 c0 64 -5 134 -11 155 -19 70 -113 99 -189 59z"/>
 <path d="M751 1561 c-28 -87 -51 -164 -51 -171 0 -7 15 -10 42 -8 l42 3 35 108 36 108 36 -108 36 -108 39 -3 40 -3 34 106 c19 58 36 105 39 105 4 0 21 -48 39 -105 l34 -105 39 0 c22 0 39 5 39 11 0 6 -23 83 -51 170 l-52 159 -47 0 -47 0 -33 -102 -33 -102 -23 64 c-13 36 -29 82 -34 103 -11 36 -12 37 -59 37 l-48 0 -52 -159z"/>
 <path d="M1520 1550 l0 -170 38 0 c36 0 38 2 96 100 32 55 59 100 61 100 1 0 28 -45 60 -100 56 -95 61 -100 92 -100 l33 0 0 118 c0 64 3 141 6 170 l7 52 -46 0 -46 0 -3 -82 -3 -83 -40 67 c-54 92 -70 91 -127 -4 l-43 -73 -3 88 -3 87 -39 0 -40 0 0 -170z"/>
 <path d="M764 1265 c-3 -8 -7 -29 -8 -47 -1 -30 1 -32 36 -34 21 -2 40 1 43 6 3 5 12 7 19 4 15 -6 47 52 39 73 -6 14 -33 18 -33 4 0 -4 -11 -6 -24 -4 -17 4 -25 0 -29 -14 -4 -15 -5 -14 -6 5 -1 25 -28 30 -37 7z"/>
 <path d="M1170 1253 c0 -16 8 -37 16 -48 14 -19 16 -19 28 -2 13 16 14 16 19 -3 6 -24 37 -27 37 -3 0 15 1 15 13 -2 21 -27 40 -10 31 28 -9 45 -20 55 -56 53 -25 -1 -34 -7 -38 -26 l-6 -25 -7 28 c-4 15 -14 27 -22 27 -10 0 -15 -10 -15 -27z"/>
 <path d="M1005 913 c-10 -21 -24 -42 -31 -46 -8 -4 -14 -14 -14 -21 0 -14 61 -76 76 -76 18 0 77 68 70 82 -52 105 -74 118 -101 61z m45 -44 c15 -26 -5 -56 -26 -38 -10 8 -10 16 -2 35 14 29 14 29 28 3z"/>
 <path d="M782 785 c-25 -21 -32 -35 -32 -62 0 -27 4 -34 17 -31 10 2 19 12 21 23 6 28 32 55 54 55 26 0 58 -36 57 -62 l-2 -23 -4 23 c-6 28 -23 28 -47 0 -14 -16 -16 -25 -8 -39 9 -14 8 -16 -9 -12 -11 3 -22 9 -25 14 -10 16 -34 9 -34 -10 0 -58 117 -62 154 -6 41 62 4 142 -70 152 -33 4 -45 1 -72 -22z"/>
 <path d="M1151 784 c-24 -20 -31 -34 -31 -61 0 -27 4 -34 17 -31 9 2 20 14 23 28 3 14 18 31 32 39 23 13 29 13 52 -2 18 -12 26 -26 25 -45 -1 -17 -3 -20 -6 -9 -2 9 -10 17 -17 17 -15 0 -46 -32 -46 -48 0 -6 -12 -10 -26 -9 -41 3 -41 -21 1 -39 102 -42 184 78 106 157 -39 38 -87 39 -130 3z"/>
 <path d="M733 454 c-3 -8 -1 -20 6 -27 6 -6 11 -25 11 -42 l0 -32 134 -42 135 -42 128 41 c70 23 131 44 135 46 18 11 -8 34 -53 45 -48 12 -49 14 -43 42 5 26 4 28 -18 25 -15 -2 -24 -11 -26 -25 -4 -29 -35 -38 -132 -38 -103 1 -130 9 -130 40 0 18 -5 25 -20 25 -15 0 -20 -7 -20 -29 0 -17 -6 -31 -16 -35 -29 -11 -39 -6 -16 10 28 19 30 54 3 54 -11 0 -22 -6 -25 -12 -5 -10 -7 -10 -12 0 -8 17 -33 15 -41 -4z m239 -91 c38 -3 93 -1 128 6 95 19 96 0 1 -29 l-85 -26 -82 25 c-45 14 -80 30 -77 34 3 5 15 6 27 3 11 -4 51 -9 88 -13z"/>
 </g>

</svg>